<svg xmlns="http://www.w3.org/2000/svg" width="1100" height="640" viewBox="0 0 1100 640">
<rect width="100%" height="100%" fill="white"/>
<style>text{font-family:Arial,sans-serif;fill:#222}.axis{stroke:#444;stroke-width:1}.grid{stroke:#ddd;stroke-width:1}.label{font-size:13px}.small{font-size:11px}.title{font-size:22px;font-weight:700}.legend{font-size:13px}</style>
<text class="title" x="550.0" y="34" text-anchor="middle">Target-state accuracy by input format</text>
<line class="grid" x1="88" x2="1072" y1="518.00" y2="518.00"/>
<text class="label" x="76" y="522.00" text-anchor="end">0.0</text>
<line class="grid" x1="88" x2="1072" y1="429.60" y2="429.60"/>
<text class="label" x="76" y="433.60" text-anchor="end">0.2</text>
<line class="grid" x1="88" x2="1072" y1="341.20" y2="341.20"/>
<text class="label" x="76" y="345.20" text-anchor="end">0.4</text>
<line class="grid" x1="88" x2="1072" y1="252.80" y2="252.80"/>
<text class="label" x="76" y="256.80" text-anchor="end">0.6</text>
<line class="grid" x1="88" x2="1072" y1="164.40" y2="164.40"/>
<text class="label" x="76" y="168.40" text-anchor="end">0.8</text>
<line class="grid" x1="88" x2="1072" y1="76.00" y2="76.00"/>
<text class="label" x="76" y="80.00" text-anchor="end">1.0</text>
<line class="axis" x1="88" x2="88" y1="76" y2="518"/>
<line class="axis" x1="88" x2="1072" y1="518" y2="518"/>
<rect x="119.40" y="98.10" width="32.00" height="419.90" fill="#1f77b4"/>
<text class="small" x="135.40" y="93.10" text-anchor="middle">0.950</text>
<rect x="153.40" y="120.20" width="32.00" height="397.80" fill="#2ca02c"/>
<text class="small" x="169.40" y="115.20" text-anchor="middle">0.900</text>
<rect x="187.40" y="481.17" width="32.00" height="36.83" fill="#7f7f7f"/>
<text class="small" x="203.40" y="476.17" text-anchor="middle">0.083</text>
<rect x="221.40" y="149.67" width="32.00" height="368.33" fill="#d62728"/>
<text class="small" x="237.40" y="144.67" text-anchor="middle">0.833</text>
<text class="label" x="186.40" y="540" text-anchor="middle">csv or mixed</text>
<rect x="316.20" y="267.53" width="32.00" height="250.47" fill="#1f77b4"/>
<text class="small" x="332.20" y="262.53" text-anchor="middle">0.567</text>
<rect x="350.20" y="238.07" width="32.00" height="279.93" fill="#2ca02c"/>
<text class="small" x="366.20" y="233.07" text-anchor="middle">0.633</text>
<rect x="384.20" y="407.50" width="32.00" height="110.50" fill="#7f7f7f"/>
<text class="small" x="400.20" y="402.50" text-anchor="middle">0.250</text>
<rect x="418.20" y="459.07" width="32.00" height="58.93" fill="#d62728"/>
<text class="small" x="434.20" y="454.07" text-anchor="middle">0.133</text>
<text class="label" x="383.20" y="540" text-anchor="middle">free text</text>
<rect x="513.00" y="127.57" width="32.00" height="390.43" fill="#1f77b4"/>
<text class="small" x="529.00" y="122.57" text-anchor="middle">0.883</text>
<rect x="547.00" y="105.47" width="32.00" height="412.53" fill="#2ca02c"/>
<text class="small" x="563.00" y="100.47" text-anchor="middle">0.933</text>
<rect x="581.00" y="444.33" width="32.00" height="73.67" fill="#7f7f7f"/>
<text class="small" x="597.00" y="439.33" text-anchor="middle">0.167</text>
<rect x="615.00" y="319.10" width="32.00" height="198.90" fill="#d62728"/>
<text class="small" x="631.00" y="314.10" text-anchor="middle">0.450</text>
<text class="label" x="580.00" y="540" text-anchor="middle">json</text>
<rect x="709.80" y="98.10" width="32.00" height="419.90" fill="#1f77b4"/>
<text class="small" x="725.80" y="93.10" text-anchor="middle">0.950</text>
<rect x="743.80" y="98.10" width="32.00" height="419.90" fill="#2ca02c"/>
<text class="small" x="759.80" y="93.10" text-anchor="middle">0.950</text>
<rect x="777.80" y="503.27" width="32.00" height="14.73" fill="#7f7f7f"/>
<text class="small" x="793.80" y="498.27" text-anchor="middle">0.033</text>
<rect x="811.80" y="488.53" width="32.00" height="29.47" fill="#d62728"/>
<text class="small" x="827.80" y="483.53" text-anchor="middle">0.067</text>
<text class="label" x="776.80" y="540" text-anchor="middle">key value</text>
<rect x="906.60" y="98.10" width="32.00" height="419.90" fill="#1f77b4"/>
<text class="small" x="922.60" y="93.10" text-anchor="middle">0.950</text>
<rect x="940.60" y="127.57" width="32.00" height="390.43" fill="#2ca02c"/>
<text class="small" x="956.60" y="122.57" text-anchor="middle">0.883</text>
<rect x="974.60" y="503.27" width="32.00" height="14.73" fill="#7f7f7f"/>
<text class="small" x="990.60" y="498.27" text-anchor="middle">0.033</text>
<rect x="1008.60" y="83.37" width="32.00" height="434.63" fill="#d62728"/>
<text class="small" x="1024.60" y="78.37" text-anchor="middle">0.983</text>
<text class="label" x="973.60" y="540" text-anchor="middle">markdown</text>
<rect x="240.00" y="576" width="16" height="16" fill="#1f77b4"/>
<text class="legend" x="262.00" y="589">D-FS-M</text>
<rect x="395.00" y="576" width="16" height="16" fill="#2ca02c"/>
<text class="legend" x="417.00" y="589">J-FS-M</text>
<rect x="550.00" y="576" width="16" height="16" fill="#7f7f7f"/>
<text class="legend" x="572.00" y="589">MP-FS-M</text>
<rect x="705.00" y="576" width="16" height="16" fill="#d62728"/>
<text class="legend" x="727.00" y="589">MP-FS+</text>
</svg>
